<svg id="Capa_1" data-name="Capa 1" xmlns="http://www.w3.org/2000/svg" viewBox="0 0 891.02 890.92"><defs><style>.cls-1{fill:#7e22ce;}</style></defs><path class="cls-1" d="M2.8,180.87c46.6,134,144.7,286.21,282.9,424.4s290.4,236.3,424.4,282.9a50.28,50.28,0,0,0,52-11.8l92.7-92.7,21.6-21.6a50,50,0,0,0,0-70.7L732.9,548a50,50,0,0,0-70.7,0l-38.9,38.9a56.79,56.79,0,0,1-75,4.6,1425.13,1425.13,0,0,1-131.9-116.8,1426.59,1426.59,0,0,1-116.8-131.9,56.8,56.8,0,0,1,4.6-75l38.9-38.9a50,50,0,0,0,0-70.7L199.6,14.67a50,50,0,0,0-70.7,0l-21.6,21.6L14.6,129A50.06,50.06,0,0,0,2.8,180.87Z" transform="translate(0 -0.05)"/></svg>